<svg xmlns="http://www.w3.org/2000/svg" viewBox="35.681 83.498 2479.820 644.882" style="fill-rule:evenodd;clip-rule:evenodd;stroke-miterlimit:10;">
  <g transform="matrix(1,0,0,1,2457.2854,562.0026)">
    <path d="M0,-473.505L-459.564,-473.505L-459.564,0L0,0L-236.752,-236.752L0,-473.505Z" style="fill:rgb(247,148,61);fill-rule:nonzero;" />
  </g>
  <g transform="matrix(1,0,0,1,919.5612,215.6686)">
    <path d="M0,198.631L-149.182,-126.862L-188.641,-126.862L-391.348,315.398L-380.605,325.493L0,198.631Z" style="fill:rgb(247,148,61);fill-rule:nonzero;" />
  </g>
  <g transform="matrix(1,0,0,1,961.6133,421.8513)">
    <path d="M0,-175.516L0,-17.682L157.835,140.154L292.095,140.154L140.154,-315.67L0,-175.516Z" style="fill:rgb(247,148,61);fill-rule:nonzero;" />
  </g>
  <g transform="matrix(1,0,0,1,1479.6727,545.1388)">
    <path d="M0,-455.907L0,0L299.87,-318.617L0,-455.907Z" style="fill:rgb(247,148,61);fill-rule:nonzero;" />
  </g>
  <g transform="matrix(1,0,0,1,513.8929,388.3676)">
    <path d="M0,-299.87L-455.907,-299.87L-137.291,0L0,-299.87Z" style="fill:rgb(247,148,61);fill-rule:nonzero;" />
  </g>
  <g transform="matrix(0.707107,0.707107,0.707107,-0.707107,2316.761009,245.013858)">
    <rect x="33.247" y="-80.243" width="160.478" height="160.508" style="fill:rgb(0,152,206);" />
  </g>
  <g transform="matrix(1,0,0,1,1435.127,228.8037)">
    <path d="M0,175.37L0,17.536L-157.835,-140.3L-292.305,-140.3L-140.322,315.67L0,175.37Z" style="fill:rgb(0,152,206);fill-rule:nonzero;" />
  </g>
  <g transform="matrix(0.948682,0.316231,0.316231,-0.948682,784.470907,475.199025)">
    <path d="M5.215,-32.951L175.663,-32.951L219.838,-18.226L139.491,67.765L5.215,-32.951Z" style="fill:rgb(0,152,206);fill-rule:nonzero;" />
  </g>
  <g transform="matrix(1,0,0,1,1953.1841,107.0174)">
    <path d="M0,455.426L0,0L-299.452,318.178L0,455.426Z" style="fill:rgb(0,152,206);fill-rule:nonzero;" />
  </g>
  <g transform="matrix(-0.416654,0.909065,0.909065,0.416654,440.361558,393.6057)">
    <path d="M-9.788,-293.17L319.617,-293.17L130.942,118.486L128.219,115.951L-9.788,-293.17Z" style="fill:rgb(0,152,206);fill-rule:nonzero;" />
  </g>
  <g>
    <path d="M41.627,645.959L50.518,645.959L50.518,679.506C50.518,695.942 59.006,700.657 75.712,700.657C80.292,700.657 84.334,699.984 88.241,699.04L88.241,680.314C80.292,680.853 75.442,680.718 75.442,673.847L75.442,645.959L88.511,645.959L88.511,630.601L75.442,630.601L75.442,608.371L50.518,608.371L50.518,630.601L41.627,630.601L41.627,645.959Z" style="fill:rgb(0,152,206);fill-rule:nonzero;" />
    <path d="M123.606,602.982L98.143,602.982L98.143,699.31L123.606,699.31L123.606,662.261C123.606,654.851 127.513,649.193 133.98,649.193C140.581,649.193 143.545,653.908 143.545,661.048L143.545,699.31L169.008,699.31L169.008,654.851C169.008,639.088 160.79,628.445 144.892,628.445C135.327,628.445 129.13,632.487 124.01,638.415L123.606,638.415L123.606,602.982Z" style="fill:rgb(0,152,206);fill-rule:nonzero;" />
    <path d="M215.42,701.196C224.177,701.196 231.048,699.445 237.38,695.403C244.117,691.092 248.967,685.029 250.449,678.832L225.794,678.832C223.908,682.2 220.675,683.951 216.229,683.951C208.549,683.951 204.238,679.101 202.756,671.153L251.796,671.153C252.065,657.546 248.158,645.286 239.805,637.606C233.473,631.813 225.255,628.31 214.477,628.31C192.787,628.31 177.832,644.073 177.832,664.821C177.832,685.838 192.921,701.196 215.42,701.196ZM215.016,645.42C221.079,645.42 225.39,650.001 226.468,657.68L202.756,657.68C204.104,650.136 208.011,645.42 215.016,645.42Z" style="fill:rgb(0,152,206);fill-rule:nonzero;" />
    <path d="M278.202,699.31L303.664,699.31L303.664,662.261C303.664,654.851 306.898,649.193 313.23,649.193C319.697,649.193 321.987,653.773 321.987,660.779L321.987,699.31L347.45,699.31L347.45,662.261C347.45,654.851 350.683,649.193 357.015,649.193C363.482,649.193 365.772,653.773 365.772,660.779L365.772,699.31L391.235,699.31L391.235,656.064C391.235,640.301 383.96,628.445 367.119,628.445C358.228,628.445 350.548,631.274 344.62,640.436L344.216,640.436C340.714,632.891 333.843,628.445 324.681,628.445C314.308,628.445 307.706,632.891 302.856,640.84L302.452,640.84L302.452,630.601L278.202,630.601L278.202,699.31Z" style="fill:rgb(0,152,206);fill-rule:nonzero;" />
    <path d="M446.068,699.31L471.126,699.31L471.126,698.232C468.971,696.885 468.566,693.786 468.566,687.993L468.566,653.639C468.566,644.477 465.064,637.472 457.923,633.026C452.669,629.792 445.933,628.445 435.424,628.445C413.869,628.445 403.36,639.627 402.821,653.234L426.937,653.234C427.61,648.25 430.44,645.016 435.963,645.016C441.487,645.016 443.238,647.845 443.238,651.618C443.238,655.929 439.331,657.68 424.781,659.297C411.578,660.779 399.857,665.225 399.857,680.449C399.857,693.921 409.557,701.061 422.76,701.061C431.652,701.061 438.927,698.097 443.508,691.765L443.777,691.765C444.316,695.538 445.124,697.693 446.068,699.31ZM432.326,685.972C428.149,685.972 424.377,683.951 424.377,679.371C424.377,675.329 426.667,673.173 434.077,671.557C438.388,670.614 441.487,669.536 443.912,668.323L443.912,674.386C443.912,682.604 438.254,685.972 432.326,685.972Z" style="fill:rgb(0,152,206);fill-rule:nonzero;" />
    <path d="M475.37,645.959L484.262,645.959L484.262,679.506C484.262,695.942 492.749,700.657 509.455,700.657C514.036,700.657 518.077,699.984 521.984,699.04L521.984,680.314C514.036,680.853 509.186,680.718 509.186,673.847L509.186,645.959L522.254,645.959L522.254,630.601L509.186,630.601L509.186,608.371L484.262,608.371L484.262,630.601L475.37,630.601L475.37,645.959Z" style="fill:rgb(0,152,206);fill-rule:nonzero;" />
    <path d="M565.029,701.196C573.786,701.196 580.657,699.445 586.989,695.403C593.725,691.092 598.575,685.029 600.057,678.832L575.402,678.832C573.516,682.2 570.283,683.951 565.837,683.951C558.158,683.951 553.847,679.101 552.365,671.153L601.404,671.153C601.674,657.546 597.767,645.286 589.414,637.606C583.082,631.813 574.863,628.31 564.086,628.31C542.395,628.31 527.441,644.073 527.441,664.821C527.441,685.838 542.53,701.196 565.029,701.196ZM564.624,645.42C570.687,645.42 574.998,650.001 576.076,657.68L552.365,657.68C553.712,650.136 557.619,645.42 564.624,645.42Z" style="fill:rgb(0,152,206);fill-rule:nonzero;" />
    <path d="M634.411,630.601L610.161,630.601L610.161,699.31L635.624,699.31L635.624,671.153C635.624,655.659 644.381,648.923 659.335,651.483L659.874,651.483L659.874,629.792C659.066,629.388 657.719,629.119 655.698,629.119C646.941,629.119 640.339,632.352 634.816,640.974L634.411,640.974L634.411,630.601Z" style="fill:rgb(0,152,206);fill-rule:nonzero;" />
    <path d="M667.015,699.31L692.477,699.31L692.477,630.601L667.015,630.601L667.015,699.31ZM667.015,622.248L692.477,622.248L692.477,602.982L667.015,602.982L667.015,622.248Z" style="fill:rgb(0,152,206);fill-rule:nonzero;" />
    <path d="M747.579,699.31L772.638,699.31L772.638,698.232C770.482,696.885 770.078,693.786 770.078,687.993L770.078,653.639C770.078,644.477 766.575,637.472 759.435,633.026C754.181,629.792 747.445,628.445 736.936,628.445C715.38,628.445 704.872,639.627 704.333,653.234L728.449,653.234C729.122,648.25 731.951,645.016 737.475,645.016C742.999,645.016 744.75,647.845 744.75,651.618C744.75,655.929 740.843,657.68 726.293,659.297C713.09,660.779 701.369,665.225 701.369,680.449C701.369,693.921 711.069,701.061 724.272,701.061C733.164,701.061 740.439,698.097 745.02,691.765L745.289,691.765C745.828,695.538 746.636,697.693 747.579,699.31ZM733.838,685.972C729.661,685.972 725.889,683.951 725.889,679.371C725.889,675.329 728.179,673.173 735.589,671.557C739.9,670.614 742.999,669.536 745.424,668.323L745.424,674.386C745.424,682.604 739.765,685.972 733.838,685.972Z" style="fill:rgb(0,152,206);fill-rule:nonzero;" />
    <rect x="782.608" y="602.982" width="26.136" height="96.328" style="fill:rgb(0,152,206);fill-rule:nonzero;" />
    <path d="M835.015,645.959L843.503,645.959L843.503,699.31L868.966,699.31L868.966,645.959L882.438,645.959L882.438,630.601L868.966,630.601L868.966,628.849C868.966,620.631 874.489,620.496 882.438,620.631L882.438,603.791C869.639,602.443 855.897,603.252 849.431,609.449C845.524,613.221 843.503,618.88 843.503,626.828L843.503,630.601L835.015,630.601L835.015,645.959Z" style="fill:rgb(247,148,61);fill-rule:nonzero;" />
    <path d="M924.135,701.465C947.038,701.465 961.588,685.972 961.588,665.09C961.588,644.208 947.038,628.58 924.135,628.58C901.232,628.58 886.412,644.208 886.412,665.09C886.412,685.972 901.232,701.465 924.135,701.465ZM923.865,684.49C916.051,684.49 912.279,676.676 912.279,665.09C912.279,653.504 916.051,645.69 923.865,645.69C931.679,645.69 935.721,653.504 935.721,665.09C935.721,676.676 931.679,684.49 923.865,684.49Z" style="fill:rgb(247,148,61);fill-rule:nonzero;" />
    <path d="M994.528,630.601L970.278,630.601L970.278,699.31L995.741,699.31L995.741,671.153C995.741,655.659 1004.498,648.923 1019.452,651.483L1019.991,651.483L1019.991,629.792C1019.183,629.388 1017.835,629.119 1015.814,629.119C1007.057,629.119 1000.456,632.352 994.932,640.974L994.528,640.974L994.528,630.601Z" style="fill:rgb(247,148,61);fill-rule:nonzero;" />
    <path d="M1046.127,722.078L1071.59,722.078L1071.59,692.843L1071.994,692.843C1076.575,698.502 1082.907,701.6 1091.125,701.6C1109.448,701.6 1121.303,687.319 1121.303,664.821C1121.303,644.881 1110.66,628.445 1092.203,628.445C1082.772,628.445 1075.767,632.217 1070.782,638.684L1070.378,638.684L1070.378,630.601L1046.127,630.601L1046.127,722.078ZM1083.581,682.874C1075.767,682.874 1070.647,675.868 1070.647,665.898C1070.647,656.064 1075.767,648.788 1083.581,648.788C1091.125,648.788 1095.436,655.39 1095.436,665.898C1095.436,676.407 1091.125,682.874 1083.581,682.874Z" style="fill:rgb(247,148,61);fill-rule:nonzero;" />
    <rect x="1130.734" y="602.982" width="26.136" height="96.328" style="fill:rgb(247,148,61);fill-rule:nonzero;" />
    <path d="M1212.242,699.31L1237.3,699.31L1237.3,698.232C1235.145,696.885 1234.741,693.786 1234.741,687.993L1234.741,653.639C1234.741,644.477 1231.238,637.472 1224.097,633.026C1218.843,629.792 1212.107,628.445 1201.599,628.445C1180.043,628.445 1169.534,639.627 1168.995,653.234L1193.111,653.234C1193.785,648.25 1196.614,645.016 1202.137,645.016C1207.661,645.016 1209.413,647.845 1209.413,651.618C1209.413,655.929 1205.506,657.68 1190.955,659.297C1177.752,660.779 1166.032,665.225 1166.032,680.449C1166.032,693.921 1175.732,701.061 1188.935,701.061C1197.826,701.061 1205.101,698.097 1209.682,691.765L1209.951,691.765C1210.49,695.538 1211.299,697.693 1212.242,699.31ZM1198.5,685.972C1194.323,685.972 1190.551,683.951 1190.551,679.371C1190.551,675.329 1192.842,673.173 1200.251,671.557C1204.563,670.614 1207.661,669.536 1210.086,668.323L1210.086,674.386C1210.086,682.604 1204.428,685.972 1198.5,685.972Z" style="fill:rgb(247,148,61);fill-rule:nonzero;" />
    <path d="M1247.135,722.078L1264.784,722.078C1278.661,722.078 1286.744,716.285 1292.537,699.31L1315.979,630.601L1290.651,630.601L1282.298,658.219C1280.143,665.225 1278.122,674.925 1278.122,674.925L1277.852,674.925C1277.852,674.925 1275.966,665.225 1273.811,658.219L1265.323,630.601L1238.513,630.601L1260.473,687.454C1262.09,691.496 1263.572,695.133 1263.572,697.289C1263.572,700.927 1261.281,702.409 1255.623,702.409L1247.135,702.409L1247.135,722.078Z" style="fill:rgb(247,148,61);fill-rule:nonzero;" />
    <path d="M1422.653,723.38L1448.358,723.38L1448.358,693.867L1448.766,693.867C1453.39,699.579 1459.782,702.707 1468.078,702.707C1486.575,702.707 1498.543,688.29 1498.543,665.578C1498.543,645.449 1487.799,628.856 1469.166,628.856C1459.646,628.856 1452.574,632.665 1447.542,639.193L1447.134,639.193L1447.134,631.032L1422.653,631.032L1422.653,723.38ZM1460.462,683.802C1452.574,683.802 1447.406,676.73 1447.406,666.666C1447.406,656.737 1452.574,649.393 1460.462,649.393C1468.078,649.393 1472.43,656.057 1472.43,666.666C1472.43,677.274 1468.078,683.802 1460.462,683.802Z" style="fill:rgb(0,152,206);fill-rule:nonzero;" />
    <rect x="1507.996" y="603.152" width="26.385" height="97.243" style="fill:rgb(0,152,206);fill-rule:nonzero;" />
    <path d="M1590.21,700.395L1615.507,700.395L1615.507,699.307C1613.331,697.947 1612.923,694.819 1612.923,688.97L1612.923,654.289C1612.923,645.041 1609.387,637.969 1602.179,633.481C1596.875,630.216 1590.074,628.856 1579.466,628.856C1557.705,628.856 1547.097,640.145 1546.553,653.881L1570.898,653.881C1571.578,648.849 1574.434,645.585 1580.01,645.585C1585.586,645.585 1587.354,648.441 1587.354,652.249C1587.354,656.601 1583.41,658.369 1568.722,660.001C1555.393,661.497 1543.561,665.986 1543.561,681.354C1543.561,694.955 1553.353,702.163 1566.682,702.163C1575.658,702.163 1583.002,699.171 1587.626,692.779L1587.898,692.779C1588.442,696.587 1589.258,698.763 1590.21,700.395ZM1576.338,686.93C1572.122,686.93 1568.314,684.89 1568.314,680.266C1568.314,676.186 1570.626,674.01 1578.106,672.378C1582.458,671.426 1585.586,670.338 1588.034,669.114L1588.034,675.234C1588.034,683.53 1582.322,686.93 1576.338,686.93Z" style="fill:rgb(0,152,206);fill-rule:nonzero;" />
    <path d="M1625.436,723.38L1643.252,723.38C1657.261,723.38 1665.421,717.531 1671.269,700.395L1694.934,631.032L1669.365,631.032L1660.933,658.913C1658.757,665.986 1656.717,675.778 1656.717,675.778L1656.445,675.778C1656.445,675.778 1654.541,665.986 1652.365,658.913L1643.796,631.032L1616.731,631.032L1638.9,688.426C1640.532,692.507 1642.028,696.179 1642.028,698.355C1642.028,702.027 1639.716,703.523 1634.004,703.523L1625.436,703.523L1625.436,723.38Z" style="fill:rgb(0,152,206);fill-rule:nonzero;" />
    <path d="M1715.471,646.537L1724.039,646.537L1724.039,700.395L1749.744,700.395L1749.744,646.537L1763.344,646.537L1763.344,631.032L1749.744,631.032L1749.744,629.264C1749.744,620.968 1755.32,620.832 1763.344,620.968L1763.344,603.968C1750.424,602.607 1736.551,603.424 1730.023,609.68C1726.079,613.488 1724.039,619.2 1724.039,627.224L1724.039,631.032L1715.471,631.032L1715.471,646.537Z" style="fill:rgb(247,148,61);fill-rule:nonzero;" />
    <path d="M1805.098,702.571C1828.218,702.571 1842.907,686.93 1842.907,665.85C1842.907,644.769 1828.218,628.992 1805.098,628.992C1781.977,628.992 1767.016,644.769 1767.016,665.85C1767.016,686.93 1781.977,702.571 1805.098,702.571ZM1804.826,685.434C1796.937,685.434 1793.129,677.546 1793.129,665.85C1793.129,654.153 1796.937,646.265 1804.826,646.265C1812.714,646.265 1816.794,654.153 1816.794,665.85C1816.794,677.546 1812.714,685.434 1804.826,685.434Z" style="fill:rgb(247,148,61);fill-rule:nonzero;" />
    <path d="M1876.5,631.032L1852.019,631.032L1852.019,700.395L1877.724,700.395L1877.724,671.97C1877.724,656.329 1886.564,649.529 1901.661,652.113L1902.205,652.113L1902.205,630.216C1901.389,629.808 1900.029,629.536 1897.989,629.536C1889.149,629.536 1882.484,632.801 1876.908,641.505L1876.5,641.505L1876.5,631.032Z" style="fill:rgb(247,148,61);fill-rule:nonzero;" />
    <path d="M1924.918,646.537L1933.894,646.537L1933.894,680.402C1933.894,696.995 1942.462,701.755 1959.327,701.755C1963.951,701.755 1968.031,701.075 1971.975,700.123L1971.975,681.218C1963.951,681.762 1959.055,681.626 1959.055,674.69L1959.055,646.537L1972.247,646.537L1972.247,631.032L1959.055,631.032L1959.055,608.592L1933.894,608.592L1933.894,631.032L1924.918,631.032L1924.918,646.537Z" style="fill:rgb(247,148,61);fill-rule:nonzero;" />
    <path d="M2007.609,603.152L1981.904,603.152L1981.904,700.395L2007.609,700.395L2007.609,662.994C2007.609,655.513 2011.553,649.801 2018.081,649.801C2024.745,649.801 2027.737,654.561 2027.737,661.769L2027.737,700.395L2053.442,700.395L2053.442,655.513C2053.442,639.601 2045.146,628.856 2029.097,628.856C2019.441,628.856 2013.185,632.937 2008.017,638.921L2007.609,638.921L2007.609,603.152Z" style="fill:rgb(247,148,61);fill-rule:nonzero;" />
    <path d="M2100.228,702.299C2109.068,702.299 2116.004,700.531 2122.396,696.451C2129.197,692.099 2134.093,685.978 2135.589,679.722L2110.7,679.722C2108.796,683.122 2105.532,684.89 2101.044,684.89C2093.291,684.89 2088.939,679.994 2087.443,671.97L2136.949,671.97C2137.221,658.233 2133.277,645.857 2124.845,638.105C2118.452,632.256 2110.156,628.72 2099.276,628.72C2077.379,628.72 2062.282,644.633 2062.282,665.578C2062.282,686.794 2077.515,702.299 2100.228,702.299ZM2099.82,645.993C2105.94,645.993 2110.292,650.617 2111.38,658.369L2087.443,658.369C2088.803,650.753 2092.747,645.993 2099.82,645.993Z" style="fill:rgb(247,148,61);fill-rule:nonzero;" />
    <path d="M2198.695,702.299C2207.535,702.299 2214.472,700.531 2220.864,696.451C2227.664,692.099 2232.56,685.978 2234.056,679.722L2209.167,679.722C2207.263,683.122 2203.999,684.89 2199.511,684.89C2191.759,684.89 2187.407,679.994 2185.911,671.97L2235.416,671.97C2235.688,658.233 2231.744,645.857 2223.312,638.105C2216.92,632.256 2208.623,628.72 2197.743,628.72C2175.846,628.72 2160.75,644.633 2160.75,665.578C2160.75,686.794 2175.982,702.299 2198.695,702.299ZM2198.287,645.993C2204.407,645.993 2208.759,650.617 2209.847,658.369L2185.911,658.369C2187.271,650.753 2191.215,645.993 2198.287,645.993Z" style="fill:rgb(247,148,61);fill-rule:nonzero;" />
    <path d="M2287.37,700.395L2312.667,700.395L2312.667,699.307C2310.491,697.947 2310.083,694.819 2310.083,688.97L2310.083,654.289C2310.083,645.041 2306.547,637.969 2299.338,633.481C2294.034,630.216 2287.234,628.856 2276.626,628.856C2254.865,628.856 2244.257,640.145 2243.713,653.881L2268.057,653.881C2268.737,648.849 2271.593,645.585 2277.17,645.585C2282.746,645.585 2284.514,648.441 2284.514,652.249C2284.514,656.601 2280.57,658.369 2265.881,660.001C2252.553,661.497 2240.72,665.986 2240.72,681.354C2240.72,694.955 2250.513,702.163 2263.841,702.163C2272.818,702.163 2280.162,699.171 2284.786,692.779L2285.058,692.779C2285.602,696.587 2286.418,698.763 2287.37,700.395ZM2273.498,686.93C2269.281,686.93 2265.473,684.89 2265.473,680.266C2265.473,676.186 2267.785,674.01 2275.266,672.378C2279.618,671.426 2282.746,670.338 2285.194,669.114L2285.194,675.234C2285.194,683.53 2279.482,686.93 2273.498,686.93Z" style="fill:rgb(247,148,61);fill-rule:nonzero;" />
    <path d="M2347.212,631.032L2322.731,631.032L2322.731,700.395L2348.436,700.395L2348.436,671.97C2348.436,656.329 2357.276,649.529 2372.373,652.113L2372.917,652.113L2372.917,630.216C2372.101,629.808 2370.741,629.536 2368.701,629.536C2359.86,629.536 2353.196,632.801 2347.62,641.505L2347.212,641.505L2347.212,631.032Z" style="fill:rgb(247,148,61);fill-rule:nonzero;" />
    <path d="M2377.949,646.537L2386.925,646.537L2386.925,680.402C2386.925,696.995 2395.494,701.755 2412.358,701.755C2416.982,701.755 2421.063,701.075 2425.007,700.123L2425.007,681.218C2416.982,681.762 2412.086,681.626 2412.086,674.69L2412.086,646.537L2425.279,646.537L2425.279,631.032L2412.086,631.032L2412.086,608.592L2386.925,608.592L2386.925,631.032L2377.949,631.032L2377.949,646.537Z" style="fill:rgb(247,148,61);fill-rule:nonzero;" />
    <path d="M2460.776,603.152L2435.071,603.152L2435.071,700.395L2460.776,700.395L2460.776,662.994C2460.776,655.513 2464.72,649.801 2471.248,649.801C2477.912,649.801 2480.905,654.561 2480.905,661.769L2480.905,700.395L2506.609,700.395L2506.609,655.513C2506.609,639.601 2498.313,628.856 2482.265,628.856C2472.608,628.856 2466.352,632.937 2461.184,638.921L2460.776,638.921L2460.776,603.152Z" style="fill:rgb(247,148,61);fill-rule:nonzero;" />
  </g>
  <g transform="matrix(-0.707107,-0.707107,-0.707107,0.707107,1379.971753,658.614947)">
    <rect x="-18.208" y="7.542" width="36.417" height="36.417" style="fill:rgb(0,158,203);" />
  </g>
</svg>
